# xmcd
#
# Track frame offsets: 
#        182
#        15552
#        30007
#        45182
#        66842
#        80010
#        94627
#        108115
#        123540
#        135922
#        150565
#        168620
#        183475
#        198930
#        221455
#        232412
#        246725
#        259675
#        270212
#        286560
#
# Disc length: 4048 seconds
#
# Revision: 1
# Processed by: cddbd v1.5.2PL0 Copyright (c) Steve Scherf et al.
# Submitted via: ExactAudioCopyFreeDBPlugin 1.0
#
DISCID=040fce14
DTITLE=Various Artist - Lambada
DYEAR=1989
DGENRE=Dance
TTITLE0=Kaoma - Lambada
TTITLE1=Beto Barbosa - Louca Magia
TTITLE2=Beto Barbosa - Mar De Emoçoes
TTITLE3=Avatar - Isso E Bom
TTITLE4=Beto Barbosa - Diz Pra Mim
TTITLE5=Betto Douglass - Lambada Do Gallo Gago
TTITLE6=Novos Barbaros - Lambada De Salvador
TTITLE7=Alipio Martins - Nao Sei Nao Sei
TTITLE8=Alipio Martins - Maria Mariazinha
TTITLE9=Bamdamel - Ladeira Do Pelo
TTITLE10=Avatar - Dançando Lambada
TTITLE11=Beto Barbosa - Forregae
TTITLE12=Avatar - Mulé Fubanga
TTITLE13=Avatar - Lambadeiro Do Amor
TTITLE14=Jonga - Maracatchá
TTITLE15=Revelaçao - A Lambada Do Amor
TTITLE16=Jonga - Merenguéxá
TTITLE17=Laranja Mecanica - Brilho Jamaica
TTITLE18=Papa Léguas - Balanço Do Merengue
TTITLE19=Kaoma - Lambada (Instrumental)
EXTD=
EXTT0=
EXTT1=
EXTT2=
EXTT3=
EXTT4=
EXTT5=
EXTT6=
EXTT7=
EXTT8=
EXTT9=
EXTT10=
EXTT11=
EXTT12=
EXTT13=
EXTT14=
EXTT15=
EXTT16=
EXTT17=
EXTT18=
EXTT19=
PLAYORDER=
